<svg id="Capa_1" enable-background="new 0 0 512 512" height="512" viewBox="0 0 512 512" width="512" xmlns="http://www.w3.org/2000/svg"><path d="m435.536 512h-297.167c-8.541 0-15.464-6.924-15.464-15.464v-393.506c0-8.541 6.924-15.464 15.464-15.464h297.166c8.541 0 15.464 6.924 15.464 15.464v393.506c.001 8.54-6.923 15.464-15.463 15.464z" fill="#bdbdbd"/><path d="m404.583 468.217h-297.166c-8.541 0-15.464-6.924-15.464-15.464v-393.506c0-8.541 6.924-15.464 15.464-15.464h297.166c8.541 0 15.464 6.924 15.464 15.464v393.506c.001 8.541-6.923 15.464-15.464 15.464z" fill="#d4d4d4"/><path d="m373.631 424.435h-297.167c-8.541 0-15.464-6.924-15.464-15.464v-393.507c0-8.54 6.924-15.464 15.464-15.464h297.166c8.541 0 15.464 6.924 15.464 15.464v393.506c.001 8.541-6.922 15.465-15.463 15.465z" fill="#f5f5f5"/><path d="m358.143 0v424.435h15.476c8.547 0 15.476-6.918 15.476-15.453v-393.529c0-8.535-6.929-15.453-15.476-15.453z" fill="#e6e6e6"/><path d="m171.01 177.706h-53.569c-2.276 0-4.121-1.845-4.121-4.121v-53.569c0-2.276 1.845-4.121 4.121-4.121h53.569c2.276 0 4.121 1.845 4.121 4.121v53.569c0 2.276-1.845 4.121-4.121 4.121z" fill="#ff3d7a"/><path d="m171.01 277.634h-53.569c-2.276 0-4.121-1.845-4.121-4.121v-53.569c0-2.276 1.845-4.121 4.121-4.121h53.569c2.276 0 4.121 1.845 4.121 4.121v53.569c0 2.276-1.845 4.121-4.121 4.121z" fill="#8cf2ff"/><path d="m171.01 377.561h-53.569c-2.276 0-4.121-1.845-4.121-4.121v-53.569c0-2.276 1.845-4.121 4.121-4.121h53.569c2.276 0 4.121 1.845 4.121 4.121v53.569c0 2.276-1.845 4.121-4.121 4.121z" fill="#ffca28"/><g fill="#7488ed"><path d="m213.248 135.758h123.622c4.143 0 7.5-3.357 7.5-7.5s-3.357-7.5-7.5-7.5h-123.622c-4.142 0-7.5 3.357-7.5 7.5s3.357 7.5 7.5 7.5z"/><path d="m336.869 153.724h-123.621c-4.142 0-7.5 3.357-7.5 7.5s3.358 7.5 7.5 7.5h123.622c4.143 0 7.5-3.357 7.5-7.5s-3.358-7.5-7.501-7.5z"/><path d="m336.869 220.686h-123.621c-4.142 0-7.5 3.357-7.5 7.5s3.358 7.5 7.5 7.5h123.622c4.143 0 7.5-3.357 7.5-7.5s-3.358-7.5-7.501-7.5z"/><path d="m336.869 253.651h-123.621c-4.142 0-7.5 3.357-7.5 7.5s3.358 7.5 7.5 7.5h123.622c4.143 0 7.5-3.357 7.5-7.5s-3.358-7.5-7.501-7.5z"/><path d="m336.869 320.612h-123.621c-4.142 0-7.5 3.357-7.5 7.5s3.358 7.5 7.5 7.5h123.622c4.143 0 7.5-3.357 7.5-7.5s-3.358-7.5-7.501-7.5z"/><path d="m336.869 353.578h-123.621c-4.142 0-7.5 3.357-7.5 7.5s3.358 7.5 7.5 7.5h123.622c4.143 0 7.5-3.357 7.5-7.5s-3.358-7.5-7.501-7.5z"/></g><path d="m297.722 72.628h-142.165c-9.957 0-18.028-8.071-18.028-18.028 0-9.957 8.071-18.028 18.028-18.028h142.165c9.957 0 18.028 8.071 18.028 18.028 0 9.956-8.071 18.028-18.028 18.028z" fill="#8c9eff"/><path d="m199.378 109.481c-2.689-3.15-7.423-3.524-10.574-.835l-36.75 31.371-7.469-8.091c-2.809-3.043-7.554-3.233-10.598-.424s-3.234 7.554-.424 10.598l12.362 13.393c1.476 1.599 3.49 2.413 5.514 2.413 1.725 0 3.457-.592 4.867-1.796l42.237-36.056c3.151-2.689 3.524-7.422.835-10.573z" fill="#8c9eff"/></svg>